<svg width="23" height="20" viewBox="0 0 23 20" fill="none" xmlns="http://www.w3.org/2000/svg">
<g clip-path="url(#clip0_10_3855)">
<path fill-rule="evenodd" clip-rule="evenodd" d="M16.7702 17.4997C16.7702 16.5792 17.5623 15.833 18.5394 15.833C19.5166 15.833 20.3086 16.5792 20.3086 17.4997C20.3086 18.4202 19.5166 19.1663 18.5394 19.1663C17.5623 19.1663 16.7702 18.4202 16.7702 17.4997Z" fill="white"/>
<path fill-rule="evenodd" clip-rule="evenodd" d="M7.03949 17.4997C7.03949 16.5792 7.8316 15.833 8.80871 15.833C9.78585 15.833 10.5779 16.5792 10.5779 17.4997C10.5779 18.4202 9.78585 19.1663 8.80871 19.1663C7.8316 19.1663 7.03949 18.4202 7.03949 17.4997Z" fill="white"/>
<path fill-rule="evenodd" clip-rule="evenodd" d="M0.847229 0.833333C0.847229 0.373096 1.24328 0 1.73184 0H5.27027C5.6919 0 6.05493 0.280321 6.13767 0.669786L6.88064 4.16667H21.1932C21.4568 4.16667 21.7067 4.27744 21.8748 4.4688C22.0429 4.66015 22.1115 4.91215 22.0622 5.15611L20.6456 12.154C20.5242 12.7295 20.1918 13.2465 19.7066 13.6144C19.2239 13.9805 18.6204 14.1758 18.001 14.1667H9.41788C8.79842 14.1758 8.19496 13.9805 7.71221 13.6144C7.22725 13.2466 6.89498 12.7299 6.77351 12.1547C6.77346 12.1545 6.77357 12.1549 6.77351 12.1547L5.29574 5.19933C5.28974 5.17632 5.28476 5.15294 5.28084 5.12923L4.54517 1.66667H1.73184C1.24328 1.66667 0.847229 1.29357 0.847229 0.833333H0.847229ZM7.23475 5.83333L8.50868 11.8293C8.54912 12.0212 8.6599 12.1935 8.82163 12.3161C8.98335 12.4387 9.18572 12.5039 9.39329 12.5002L9.41024 12.5H18.0086L18.0256 12.5002C18.2331 12.5039 18.4355 12.4387 18.5972 12.3161C18.7582 12.194 18.8687 12.0227 18.9096 11.832L20.124 5.83333H7.23475Z" fill="white"/>
</g>
<defs>
<clipPath id="clip0_10_3855">
<rect width="21.2306" height="20" fill="white" transform="translate(0.847229)"/>
</clipPath>
</defs>
</svg>
