<svg width="23" height="20" viewBox="0 0 23 20" fill="none" xmlns="http://www.w3.org/2000/svg">
<path d="M11.6014 9.16634C12.4816 9.16634 13.3421 8.922 14.074 8.46409C14.8059 8.00629 15.3764 7.35555 15.7132 6.59419C16.05 5.83283 16.1382 4.99505 15.9664 4.1868C15.7947 3.37855 15.3709 2.63611 14.7484 2.0534C14.126 1.47068 13.333 1.07384 12.4697 0.913073C11.6063 0.752298 10.7114 0.834815 9.8982 1.15017C9.08494 1.46554 8.38985 1.9996 7.9008 2.6848C7.41176 3.37001 7.15074 4.17559 7.15074 4.99967C7.15215 6.10434 7.62151 7.16337 8.45586 7.94449C9.29021 8.72559 10.4214 9.165 11.6014 9.16634ZM11.6014 2.49967C12.1295 2.49967 12.6458 2.6463 13.0849 2.921C13.5241 3.19571 13.8664 3.58615 14.0684 4.04296C14.2706 4.49978 14.3235 5.00245 14.2205 5.4874C14.1174 5.97235 13.8631 6.41781 13.4896 6.76744C13.1162 7.11707 12.6403 7.35517 12.1224 7.45164C11.6043 7.5481 11.0674 7.49859 10.5794 7.30937C10.0915 7.12015 9.67446 6.79972 9.38103 6.3886C9.08761 5.97748 8.93099 5.49413 8.93099 4.99967C8.93099 4.33663 9.21233 3.70075 9.71312 3.23191C10.2139 2.76306 10.8932 2.49967 11.6014 2.49967ZM3.59024 18.333V14.9997C3.59166 13.895 4.06101 12.836 4.89536 12.0548C5.72971 11.2738 6.86092 10.8343 8.04086 10.833H15.1619C16.3418 10.8343 17.473 11.2738 18.3074 12.0548C19.1417 12.836 19.6111 13.895 19.6125 14.9997V18.333C19.6125 18.554 19.5187 18.766 19.3518 18.9223C19.1849 19.0785 18.9584 19.1663 18.7224 19.1663C18.4863 19.1663 18.2599 19.0785 18.093 18.9223C17.9261 18.766 17.8322 18.554 17.8322 18.333V14.9997C17.8322 14.3367 17.5509 13.7008 17.0501 13.2319C16.5493 12.7631 15.87 12.4997 15.1619 12.4997H8.04086C7.33264 12.4997 6.65342 12.7631 6.15262 13.2319C5.65183 13.7008 5.37049 14.3367 5.37049 14.9997V18.333C5.37049 18.554 5.27671 18.766 5.10978 18.9223C4.94285 19.0785 4.71644 19.1663 4.48037 19.1663C4.24429 19.1663 4.01788 19.0785 3.85095 18.9223C3.68402 18.766 3.59024 18.554 3.59024 18.333Z" fill="white"/>
</svg>
