<svg width="21" height="20" viewBox="0 0 21 20" fill="none" xmlns="http://www.w3.org/2000/svg">
<path d="M9.22119 1.60938C5.10462 1.60938 1.7513 4.97548 1.7513 9.10776C1.7513 13.24 5.10462 16.6127 9.22119 16.6127C10.9795 16.6127 12.5966 15.9941 13.8747 14.9671L16.9862 18.0889C17.1432 18.24 17.3529 18.3233 17.5704 18.3211C17.7879 18.3189 17.9959 18.2312 18.1498 18.0769C18.3037 17.9227 18.3913 17.714 18.3939 17.4957C18.3964 17.2774 18.3136 17.0667 18.1633 16.9089L15.0518 13.7856C16.0758 12.5006 16.6927 10.8748 16.6927 9.10776C16.6927 4.97548 13.3378 1.60938 9.22119 1.60938ZM9.22119 3.27607C12.4404 3.27607 15.0307 5.87623 15.0307 9.10776C15.0307 12.3393 12.4404 14.946 9.22119 14.946C6.00193 14.946 3.41163 12.3393 3.41163 9.10776C3.41163 5.87623 6.00193 3.27607 9.22119 3.27607Z" fill="#443297"/>
</svg>
